<mxfile host="app.diagrams.net" agent="Mozilla/5.0 (Windows NT 10.0; Win64; x64) AppleWebKit/537.36 (KHTML, like Gecko) Chrome/130.0.0.0 Safari/537.36" version="24.8.4">
  <diagram name="Página-1" id="SDDvxtIb1lxF_DFaRuNH">
    <mxGraphModel dx="819" dy="426" grid="1" gridSize="10" guides="1" tooltips="1" connect="1" arrows="1" fold="1" page="1" pageScale="1" pageWidth="827" pageHeight="1169" math="0" shadow="0">
      <root>
        <mxCell id="0" />
        <mxCell id="1" parent="0" />
        <mxCell id="JtZi33PVFzi6DUjqRLEN-1" value="&lt;font style=&quot;font-size: 7px;&quot;&gt;VM LINUX&lt;/font&gt;" style="image;sketch=0;aspect=fixed;html=1;points=[];align=center;fontSize=12;image=img/lib/mscae/VM_Linux.svg;" vertex="1" parent="1">
          <mxGeometry x="418.69" y="440" width="32.61" height="30" as="geometry" />
        </mxCell>
        <mxCell id="JtZi33PVFzi6DUjqRLEN-2" value="&lt;font style=&quot;font-size: 7px;&quot;&gt;VM Windows&lt;/font&gt;" style="image;sketch=0;aspect=fixed;html=1;points=[];align=center;fontSize=12;image=img/lib/mscae/VirtualMachineWindows.svg;" vertex="1" parent="1">
          <mxGeometry x="470" y="440" width="32.61" height="30" as="geometry" />
        </mxCell>
        <mxCell id="JtZi33PVFzi6DUjqRLEN-58" style="edgeStyle=orthogonalEdgeStyle;rounded=0;orthogonalLoop=1;jettySize=auto;html=1;" edge="1" parent="1" source="JtZi33PVFzi6DUjqRLEN-3" target="JtZi33PVFzi6DUjqRLEN-5">
          <mxGeometry relative="1" as="geometry">
            <Array as="points">
              <mxPoint x="463" y="400" />
              <mxPoint x="380" y="400" />
            </Array>
          </mxGeometry>
        </mxCell>
        <mxCell id="JtZi33PVFzi6DUjqRLEN-3" value="&lt;font style=&quot;font-size: 7px;&quot;&gt;Azure WebApp&lt;br&gt;Aplicação web em Java.&lt;/font&gt;" style="verticalLabelPosition=bottom;html=1;verticalAlign=top;align=center;strokeColor=none;fillColor=#00BEF2;shape=mxgraph.azure.azure_website;pointerEvents=1;" vertex="1" parent="1">
          <mxGeometry x="440" y="290" width="45.01" height="45" as="geometry" />
        </mxCell>
        <mxCell id="JtZi33PVFzi6DUjqRLEN-4" value="&lt;font size=&quot;1&quot;&gt;BD SQL&lt;/font&gt;" style="verticalLabelPosition=bottom;html=1;verticalAlign=top;align=center;strokeColor=none;fillColor=#00BEF2;shape=mxgraph.azure.sql_database;" vertex="1" parent="1">
          <mxGeometry x="570" y="282.5" width="30" height="35" as="geometry" />
        </mxCell>
        <mxCell id="JtZi33PVFzi6DUjqRLEN-54" style="edgeStyle=orthogonalEdgeStyle;rounded=0;orthogonalLoop=1;jettySize=auto;html=1;" edge="1" parent="1" source="JtZi33PVFzi6DUjqRLEN-5">
          <mxGeometry relative="1" as="geometry">
            <mxPoint x="440" y="320" as="targetPoint" />
            <Array as="points">
              <mxPoint x="330" y="465" />
              <mxPoint x="330" y="340" />
              <mxPoint x="420" y="340" />
              <mxPoint x="420" y="320" />
            </Array>
          </mxGeometry>
        </mxCell>
        <mxCell id="JtZi33PVFzi6DUjqRLEN-55" value="&lt;font style=&quot;font-size: 7px;&quot;&gt;Retorna resultado&lt;/font&gt;" style="edgeLabel;html=1;align=center;verticalAlign=middle;resizable=0;points=[];" vertex="1" connectable="0" parent="JtZi33PVFzi6DUjqRLEN-54">
          <mxGeometry x="-0.3692" y="1" relative="1" as="geometry">
            <mxPoint as="offset" />
          </mxGeometry>
        </mxCell>
        <mxCell id="JtZi33PVFzi6DUjqRLEN-5" value="&lt;font style=&quot;font-size: 7px;&quot;&gt;Serviço cognitivo&lt;/font&gt;" style="image;aspect=fixed;html=1;points=[];align=center;fontSize=12;image=img/lib/azure2/ai_machine_learning/Cognitive_Services.svg;" vertex="1" parent="1">
          <mxGeometry x="360" y="440" width="42.5" height="30" as="geometry" />
        </mxCell>
        <mxCell id="JtZi33PVFzi6DUjqRLEN-43" value="&lt;font style=&quot;font-size: 5px;&quot;&gt;Foto&lt;/font&gt;" style="text;html=1;align=center;verticalAlign=middle;whiteSpace=wrap;rounded=0;" vertex="1" parent="1">
          <mxGeometry x="480" y="410" width="30" height="10" as="geometry" />
        </mxCell>
        <mxCell id="JtZi33PVFzi6DUjqRLEN-45" value="&lt;font style=&quot;font-size: 5px;&quot;&gt;Documento&lt;/font&gt;" style="text;html=1;align=center;verticalAlign=middle;whiteSpace=wrap;rounded=0;" vertex="1" parent="1">
          <mxGeometry x="440" y="410" width="30" height="10" as="geometry" />
        </mxCell>
        <mxCell id="JtZi33PVFzi6DUjqRLEN-47" value="&lt;font style=&quot;font-size: 5px;&quot;&gt;Análise de imagem&lt;/font&gt;" style="text;html=1;align=center;verticalAlign=middle;whiteSpace=wrap;rounded=0;" vertex="1" parent="1">
          <mxGeometry x="380" y="410" width="50" height="10" as="geometry" />
        </mxCell>
        <mxCell id="JtZi33PVFzi6DUjqRLEN-49" value="&lt;font style=&quot;font-size: 7px;&quot;&gt;Armazenamento&lt;br&gt;e consulta&lt;/font&gt;" style="text;html=1;align=center;verticalAlign=middle;whiteSpace=wrap;rounded=0;" vertex="1" parent="1">
          <mxGeometry x="502.61" y="290" width="50" height="20" as="geometry" />
        </mxCell>
        <mxCell id="JtZi33PVFzi6DUjqRLEN-56" style="edgeStyle=orthogonalEdgeStyle;rounded=0;orthogonalLoop=1;jettySize=auto;html=1;entryX=0.495;entryY=0.038;entryDx=0;entryDy=0;entryPerimeter=0;" edge="1" parent="1" source="JtZi33PVFzi6DUjqRLEN-3" target="JtZi33PVFzi6DUjqRLEN-2">
          <mxGeometry relative="1" as="geometry">
            <Array as="points">
              <mxPoint x="463" y="400" />
              <mxPoint x="486" y="400" />
            </Array>
          </mxGeometry>
        </mxCell>
        <mxCell id="JtZi33PVFzi6DUjqRLEN-57" style="edgeStyle=orthogonalEdgeStyle;rounded=0;orthogonalLoop=1;jettySize=auto;html=1;entryX=0.474;entryY=0.095;entryDx=0;entryDy=0;entryPerimeter=0;" edge="1" parent="1" source="JtZi33PVFzi6DUjqRLEN-3" target="JtZi33PVFzi6DUjqRLEN-1">
          <mxGeometry relative="1" as="geometry">
            <Array as="points">
              <mxPoint x="463" y="400" />
              <mxPoint x="434" y="400" />
            </Array>
          </mxGeometry>
        </mxCell>
        <mxCell id="JtZi33PVFzi6DUjqRLEN-60" value="&lt;font style=&quot;font-size: 7px;&quot;&gt;Envia&lt;/font&gt;" style="text;html=1;align=center;verticalAlign=middle;whiteSpace=wrap;rounded=0;" vertex="1" parent="1">
          <mxGeometry x="440" y="380" width="20" height="10" as="geometry" />
        </mxCell>
        <mxCell id="JtZi33PVFzi6DUjqRLEN-61" value="&lt;font style=&quot;font-size: 7px;&quot;&gt;Azure Repos&lt;/font&gt;" style="image;sketch=0;aspect=fixed;html=1;points=[];align=center;fontSize=12;image=img/lib/mscae/Azure_Repos.svg;" vertex="1" parent="1">
          <mxGeometry x="320" y="265" width="22.5" height="25" as="geometry" />
        </mxCell>
        <mxCell id="JtZi33PVFzi6DUjqRLEN-62" style="edgeStyle=orthogonalEdgeStyle;rounded=0;orthogonalLoop=1;jettySize=auto;html=1;entryX=1.01;entryY=0.476;entryDx=0;entryDy=0;entryPerimeter=0;" edge="1" parent="1" source="JtZi33PVFzi6DUjqRLEN-3" target="JtZi33PVFzi6DUjqRLEN-61">
          <mxGeometry relative="1" as="geometry" />
        </mxCell>
        <mxCell id="JtZi33PVFzi6DUjqRLEN-64" value="" style="points=[[0.03,0.03,0],[0.5,0,0],[0.97,0.03,0],[1,0.4,0],[0.97,0.745,0],[0.5,1,0],[0.03,0.745,0],[0,0.4,0]];verticalLabelPosition=bottom;sketch=0;html=1;verticalAlign=top;aspect=fixed;align=center;pointerEvents=1;shape=mxgraph.cisco19.workstation;fillColor=#005073;strokeColor=none;" vertex="1" parent="1">
          <mxGeometry x="250" y="252.5" width="25" height="20" as="geometry" />
        </mxCell>
        <mxCell id="JtZi33PVFzi6DUjqRLEN-66" value="" style="points=[[0.03,0.03,0],[0.5,0,0],[0.97,0.03,0],[1,0.4,0],[0.97,0.745,0],[0.5,1,0],[0.03,0.745,0],[0,0.4,0]];verticalLabelPosition=bottom;sketch=0;html=1;verticalAlign=top;aspect=fixed;align=center;pointerEvents=1;shape=mxgraph.cisco19.workstation;fillColor=#005073;strokeColor=none;" vertex="1" parent="1">
          <mxGeometry x="250" y="282.5" width="25" height="20" as="geometry" />
        </mxCell>
        <mxCell id="JtZi33PVFzi6DUjqRLEN-68" style="edgeStyle=orthogonalEdgeStyle;rounded=0;orthogonalLoop=1;jettySize=auto;html=1;entryX=-0.104;entryY=0.488;entryDx=0;entryDy=0;entryPerimeter=0;" edge="1" parent="1" source="JtZi33PVFzi6DUjqRLEN-66" target="JtZi33PVFzi6DUjqRLEN-61">
          <mxGeometry relative="1" as="geometry" />
        </mxCell>
        <mxCell id="JtZi33PVFzi6DUjqRLEN-69" value="&lt;font style=&quot;font-size: 7px;&quot;&gt;Devs&lt;/font&gt;" style="text;html=1;align=center;verticalAlign=middle;resizable=0;points=[];autosize=1;strokeColor=none;fillColor=none;" vertex="1" parent="1">
          <mxGeometry x="220" y="257.5" width="40" height="30" as="geometry" />
        </mxCell>
        <mxCell id="JtZi33PVFzi6DUjqRLEN-70" style="edgeStyle=orthogonalEdgeStyle;rounded=0;orthogonalLoop=1;jettySize=auto;html=1;entryX=-0.104;entryY=0.48;entryDx=0;entryDy=0;entryPerimeter=0;" edge="1" parent="1" source="JtZi33PVFzi6DUjqRLEN-64" target="JtZi33PVFzi6DUjqRLEN-61">
          <mxGeometry relative="1" as="geometry" />
        </mxCell>
        <mxCell id="JtZi33PVFzi6DUjqRLEN-71" value="&lt;font style=&quot;font-size: 10px;&quot;&gt;Usuário&lt;/font&gt;" style="html=1;verticalLabelPosition=bottom;align=center;labelBackgroundColor=#ffffff;verticalAlign=top;strokeWidth=2;strokeColor=#0080F0;shadow=0;dashed=0;shape=mxgraph.ios7.icons.user;" vertex="1" parent="1">
          <mxGeometry x="447.5" y="170" width="30" height="30" as="geometry" />
        </mxCell>
        <mxCell id="JtZi33PVFzi6DUjqRLEN-72" style="edgeStyle=orthogonalEdgeStyle;rounded=0;orthogonalLoop=1;jettySize=auto;html=1;entryX=0.5;entryY=0;entryDx=0;entryDy=0;entryPerimeter=0;" edge="1" parent="1" source="JtZi33PVFzi6DUjqRLEN-71" target="JtZi33PVFzi6DUjqRLEN-3">
          <mxGeometry relative="1" as="geometry" />
        </mxCell>
        <mxCell id="JtZi33PVFzi6DUjqRLEN-73" value="&lt;font style=&quot;font-size: 7px;&quot;&gt;Interage&lt;/font&gt;" style="edgeLabel;html=1;align=center;verticalAlign=middle;resizable=0;points=[];" vertex="1" connectable="0" parent="JtZi33PVFzi6DUjqRLEN-72">
          <mxGeometry x="0.0222" y="-1" relative="1" as="geometry">
            <mxPoint as="offset" />
          </mxGeometry>
        </mxCell>
        <mxCell id="JtZi33PVFzi6DUjqRLEN-74" style="edgeStyle=orthogonalEdgeStyle;rounded=0;orthogonalLoop=1;jettySize=auto;html=1;entryX=0;entryY=0.5;entryDx=0;entryDy=0;entryPerimeter=0;" edge="1" parent="1" source="JtZi33PVFzi6DUjqRLEN-3" target="JtZi33PVFzi6DUjqRLEN-4">
          <mxGeometry relative="1" as="geometry">
            <Array as="points">
              <mxPoint x="510" y="300" />
              <mxPoint x="510" y="300" />
            </Array>
          </mxGeometry>
        </mxCell>
        <mxCell id="JtZi33PVFzi6DUjqRLEN-75" style="edgeStyle=orthogonalEdgeStyle;rounded=0;orthogonalLoop=1;jettySize=auto;html=1;entryX=1;entryY=0.5;entryDx=0;entryDy=0;entryPerimeter=0;" edge="1" parent="1" source="JtZi33PVFzi6DUjqRLEN-4" target="JtZi33PVFzi6DUjqRLEN-3">
          <mxGeometry relative="1" as="geometry">
            <Array as="points">
              <mxPoint x="528" y="313" />
            </Array>
          </mxGeometry>
        </mxCell>
      </root>
    </mxGraphModel>
  </diagram>
</mxfile>
